HIERARCHY
ROOT Hips
{
  OFFSET 6.15151 102.214 174.802
  CHANNELS 6 Xposition Yposition Zposition Zrotation Xrotation Yrotation
  JOINT RightUpLeg
  {
    OFFSET -8.9458 -8.66707 0.101652
    CHANNELS 3 Zrotation Xrotation Yrotation
    JOINT RightLeg
    {
      OFFSET 0 -44.4227 1.3727
      CHANNELS 3 Zrotation Xrotation Yrotation
      JOINT RightFoot
      {
        OFFSET 0.253549 -42.0924 -1.46059
        CHANNELS 3 Zrotation Xrotation Yrotation
        JOINT RightToes
        {
          OFFSET 0.04 -4.41509 8.4991
          CHANNELS 3 Zrotation Xrotation Yrotation
          End Site
          {
            OFFSET -0.08 -0.137448 9.77979
          }
        }
      }
    }
  }
  JOINT Spine
  {
    OFFSET 0 11.8905 0
    CHANNELS 3 Zrotation Xrotation Yrotation
    JOINT Spine1
    {
      OFFSET 0 25.6574 0.127663
      CHANNELS 3 Zrotation Xrotation Yrotation
      JOINT HEad
      {
        OFFSET 0 8.73416 0.011341
        CHANNELS 3 Zrotation Xrotation Yrotation
        End Site
        {
          OFFSET -0.29 12.7742 2.51395
        }
      }
      JOINT LeftShoulder1
      {
        OFFSET 8.99 -0.362252 -0.22
        CHANNELS 3 Zrotation Xrotation Yrotation
        JOINT LeftArm
        {
          OFFSET 10.2827 -0.00338 0.322123
          CHANNELS 3 Zrotation Xrotation Yrotation
          JOINT LeftForeArm
          {
            OFFSET 32.7669 0.099144 -1.42434
            CHANNELS 3 Zrotation Xrotation Yrotation
            JOINT LeftHand
            {
              OFFSET 27.5643 0.085362 1.02216
              CHANNELS 3 Zrotation Xrotation Yrotation
              End Site
              {
                OFFSET 16.7443 -0.6 1.50291
              }
            }
          }
        }
      }
      JOINT RightShoulder
      {
        OFFSET -8.99 -0.362252 -0.22
        CHANNELS 3 Zrotation Xrotation Yrotation
        JOINT RightArm
        {
          OFFSET -10.2827 -0.00338 0.322123
          CHANNELS 3 Zrotation Xrotation Yrotation
          JOINT RightForeArm
          {
            OFFSET -32.8971 0.099144 -1.42434
            CHANNELS 3 Zrotation Xrotation Yrotation
            JOINT RightHand
            {
              OFFSET -27.4921 0.085362 1.02216
              CHANNELS 3 Zrotation Xrotation Yrotation
              End Site
              {
                OFFSET -16.6312 -0.6 1.50291
              }
            }
          }
        }
      }
    }
  }
  JOINT LeftUpLeg
  {
    OFFSET 8.9458 -8.66707 0.101652
    CHANNELS 3 Zrotation Xrotation Yrotation
    JOINT LeftLeg
    {
      OFFSET 0 -44.4227 1.3727
      CHANNELS 3 Zrotation Xrotation Yrotation
      JOINT LeftFoot
      {
        OFFSET -0.253549 -42.0924 -1.46059
        CHANNELS 3 Zrotation Xrotation Yrotation
        JOINT LeftToes
        {
          OFFSET -0.04 -4.41509 8.4991
          CHANNELS 3 Zrotation Xrotation Yrotation
          End Site
          {
            OFFSET 0.08 -0.047448 9.77979
          }
        }
      }
    }
  }
}
MOTION
Frames:	8
Frame Time:	0.0166667
4.97308 103.398 -8.28486 -1.77181 0.472663 173.745 -2.55586 2.22212 -5.07995 -3.23759 43.2156 4.47812 1.60417 -4.16615 -0.123538 -2.53155 10.8792 10.8602 2.05457 2.79125 -1.35566 -4.64196 -5.17015 -0.505128 -0.724788 10.0492 14.6608 9.93923e-017 7.95139e-016 1.59028e-015 -75.9517 -45.2954 8.14301 -27.5658 12.7163 -6.10443 0.368473 9.90896 -0.00117926 -13.1618 -0.678381 18.406 95.5111 -18.0104 5.84342 22.0793 16.7416 25.3326 -0.369625 9.91382 0.00119885 -1.72313 -15.4379 -0.44797 -3.75726 14.7123 5.38408 4.32737 -0.101329 -0.0595568 -1.8431 -10.7247 9.66412 
4.81871 103.642 -9.90631 -2.02898 0.573004 173.605 -2.81503 -0.264588 -6.43835 -5.56279 47.5879 5.62102 1.77492 -1.49535 -0.154503 -2.96987 12.8268 9.22991 1.51472 2.91971 -1.36941 -4.95026 -4.94549 -0.494158 -0.691077 9.40468 14.8436 0 0 -1.59028e-015 -76.7553 -44.373 6.54588 -27.4962 12.9825 -7.20294 0.368473 9.90896 -0.00117926 -12.9609 -0.621546 17.8267 95.5884 -18.2373 5.30755 22.2491 16.4589 23.8578 -0.369625 9.91382 0.00119885 -2.08144 -13.8958 -1.2343 -4.1713 13.8916 6.28622 4.51119 -0.829565 -0.0313826 -1.83413 -10.6376 9.58322 
4.69084 103.849 -11.4721 -2.25412 0.560931 173.527 -2.95054 -2.94472 -7.93704 -8.71195 51.6377 6.63849 1.71178 0.252708 -0.178762 -3.08067 13.9322 7.32971 0.977279 3.01627 -1.37192 -5.25421 -4.75252 -0.484677 -0.550015 8.6403 14.8836 -1.49089e-016 -1.98785e-016 1.59028e-015 -77.3797 -42.9611 5.06339 -27.6282 13.3337 -8.74318 0.368473 9.90896 -0.00117926 -12.4611 -0.511201 17.1639 95.251 -18.4754 4.58754 22.5252 16.251 22.6937 -0.369625 9.91382 0.00119885 -2.37028 -12.5114 -1.99748 -4.55059 13.0671 7.10726 4.74493 -1.52297 -0.00482974 -1.80839 -10.4211 9.35053 
4.58478 104.054 -13.0298 -2.33664 0.358067 173.663 -2.84193 -5.61999 -8.88387 -11.3548 54.9264 5.16023 1.08287 0.134297 -0.172428 -3.07426 14.1847 6.59451 0.661746 3.06049 -1.39886 -5.55285 -4.78544 -0.495936 -0.25448 7.96497 14.7214 4.72114e-016 0 -1.59028e-015 -77.6594 -41.2741 3.66097 -27.8314 13.6478 -10.114 0.368473 9.90896 -0.00117926 -11.5609 -0.336126 16.2802 94.4875 -18.8063 3.59411 22.9133 16.0676 21.6785 -0.369625 9.91382 0.00119885 -2.52673 -11.332 -2.61708 -4.82502 12.2554 7.43693 4.81887 -2.08171 0.0190116 -1.85239 -10.4098 9.60381 
4.47781 104.244 -14.5611 -2.33999 0.09817 173.842 -2.6457 -8.24044 -9.40946 -13.1499 57.5367 2.92336 0.33547 -0.857713 -0.16072 -2.92985 13.766 6.03906 0.458496 3.08579 -1.41613 -5.75452 -4.83784 -0.505294 0.00936399 7.33369 14.4968 -4.72114e-016 -1.98785e-016 1.59028e-015 -77.8049 -39.3594 2.26944 -28.1269 13.9599 -11.4936 0.368473 9.90896 -0.00117926 -10.6074 -0.158239 15.4225 93.5738 -19.2086 2.50296 23.3033 15.9213 20.8623 -0.369625 9.91382 0.00119885 -2.62801 -10.2175 -2.89807 -4.94931 11.4516 7.35231 4.86788 -2.60065 0.0418924 -1.91446 -10.416 9.97021 
4.33755 104.42 -16.0613 -2.28679 -0.0973531 173.918 -2.47638 -10.6956 -9.30291 -14.0387 59.4726 1.65859 -0.158454 -2.07654 -0.164853 -2.60673 12.6905 5.13844 0.355419 3.11845 -1.39922 -5.73792 -4.74176 -0.493581 0.0285884 6.76666 14.3647 4.5969e-016 9.93923e-017 1.59028e-015 -77.9723 -37.2769 0.80986 -28.5376 14.2767 -12.9039 0.368473 9.90896 -0.00117926 -9.95873 -0.0475432 14.8663 92.7914 -19.7083 1.46092 23.5678 15.8154 20.3062 -0.369625 9.91382 0.00119885 -2.74748 -9.02143 -2.40042 -4.80128 10.6591 6.60357 4.98886 -3.1574 0.0655697 -1.97338 -10.3261 10.2812 
4.18828 104.574 -17.5371 -2.19743 -0.268876 173.973 -2.23736 -12.9951 -8.84025 -14.2747 60.6824 0.990341 -0.503042 -3.42765 -0.173419 -2.2497 11.436 3.93532 0.279352 3.15948 -1.35507 -5.59098 -4.57608 -0.469649 -0.042145 6.28467 14.2147 -1.01877e-015 -1.98785e-016 -1.59028e-015 -78.1679 -35.1857 -0.745024 -28.9333 14.5642 -14.201 0.368473 9.90896 -0.00117926 -9.50411 0.0242367 14.3869 92.1213 -20.2555 0.468269 23.7541 15.7185 19.8183 -0.369625 9.91382 0.00119885 -2.89703 -7.80393 -1.74676 -4.55649 9.85604 5.76123 5.08666 -3.70388 0.0889487 -2.02675 -10.2533 10.5614 
4.03909 104.703 -18.9929 -2.08271 -0.417461 174.036 -1.91839 -15.0994 -8.22316 -13.9481 61.0752 1.33864 -0.670714 -4.5161 -0.182645 -1.98551 10.6684 2.116 0.147286 3.21776 -1.27106 -5.31732 -4.35175 -0.431832 -0.134433 5.92128 13.9626 -6.05672e-016 -1.61513e-016 -0 -78.5374 -33.2976 -2.53654 -29.175 14.7757 -15.16 0.368473 9.90896 -0.00117926 -9.2928 0.0562917 13.8325 91.6756 -20.8195 -0.405849 23.8469 15.5837 19.1789 -0.369625 9.91382 0.00119885 -3.04147 -6.56973 -1.43614 -4.30213 8.99737 5.37428 5.0721 -4.20103 0.110722 -2.05881 -10.3041 10.7678 
